<svg xmlns="http://www.w3.org/2000/svg" width="1384.82" height="180.33" viewBox="0 0 1384.82 180.33">
  <path id="교차_2" data-name="교차 2" d="M663.627,188.328a90.317,90.317,0,0,1-28.549-19.389,93.022,93.022,0,0,1-19.271-28.668,89.214,89.214,0,0,1,0-69.945,92.965,92.965,0,0,1,19.271-28.678,90.464,90.464,0,0,1,28.549-19.389,89.215,89.215,0,0,1,69.945,0,91.2,91.2,0,0,1,48.047,48.057,89.216,89.216,0,0,1,0,69.945,91.267,91.267,0,0,1-48.047,48.047,89.215,89.215,0,0,1-69.945,0ZM681.945,64.269a45.147,45.147,0,0,0-22.839,58.168,46.412,46.412,0,0,0,9.159,14.274,44.611,44.611,0,0,0,13.68,9.913,39.384,39.384,0,0,0,33.307,0,46.1,46.1,0,0,0,13.8-9.913A45.226,45.226,0,0,0,738.33,88.3a43.614,43.614,0,0,0-9.278-14.275,47.2,47.2,0,0,0-13.8-9.754A39.384,39.384,0,0,0,681.945,64.269ZM344.593,188.328a90.317,90.317,0,0,1-28.549-19.389,93.02,93.02,0,0,1-19.271-28.668,89.215,89.215,0,0,1,0-69.945,92.962,92.962,0,0,1,19.271-28.678,90.465,90.465,0,0,1,28.549-19.389,89.215,89.215,0,0,1,69.945,0,91.2,91.2,0,0,1,48.047,48.057,89.215,89.215,0,0,1,0,69.945,91.267,91.267,0,0,1-48.047,48.047,89.215,89.215,0,0,1-69.945,0ZM362.912,64.269a45.146,45.146,0,0,0-22.839,58.168,46.422,46.422,0,0,0,9.159,14.274,44.608,44.608,0,0,0,13.68,9.913,39.384,39.384,0,0,0,33.307,0,46.105,46.105,0,0,0,13.8-9.913A45.226,45.226,0,0,0,419.3,88.3a43.616,43.616,0,0,0-9.278-14.274,47.2,47.2,0,0,0-13.8-9.754,39.384,39.384,0,0,0-33.307,0Zm949.726,128.1a5.7,5.7,0,0,1-5.71-5.71V23.934a5.68,5.68,0,0,1,5.71-5.71h64.949a86.767,86.767,0,0,1,61.1,21.888,78.082,78.082,0,0,1,19.5,28.311,97.293,97.293,0,0,1,6.661,36.886,98.131,98.131,0,0,1-6.661,36.985,77.8,77.8,0,0,1-19.5,28.43,80.952,80.952,0,0,1-27.25,16.178,100.267,100.267,0,0,1-33.9,5.482ZM1355.7,64.131a5.541,5.541,0,0,0-1.665,4.054v74.7a5.7,5.7,0,0,0,5.71,5.71h17.843a60.386,60.386,0,0,0,13.8-1.665,31.5,31.5,0,0,0,12.887-6.295,33.913,33.913,0,0,0,9.4-13.085,55.512,55.512,0,0,0,3.7-22.006,55.51,55.51,0,0,0-3.7-22,33.387,33.387,0,0,0-9.506-13.085,32.546,32.546,0,0,0-12.887-6.3,59.474,59.474,0,0,0-13.689-1.655h-17.843a5.511,5.511,0,0,0-4.045,1.636ZM1234.6,192.373a10.5,10.5,0,0,1-4.956-1.427,12.291,12.291,0,0,1-4.054-3.341L1163.5,100.3c-.991-1.279-1.982-1.784-2.974-1.556s-1.546,1.15-1.546,2.736v85.171a5.7,5.7,0,0,1-5.779,5.72h-35.458a5.7,5.7,0,0,1-5.71-5.71V23.934a5.68,5.68,0,0,1,5.71-5.71h35.686a12.529,12.529,0,0,1,9.05,4.51l61.856,87.312a3.232,3.232,0,0,0,2.974,1.665q1.556-.238,1.556-2.627V23.934a5.671,5.671,0,0,1,5.71-5.71h35.2a5.671,5.671,0,0,1,5.71,5.71V186.663a5.68,5.68,0,0,1-5.71,5.71Zm-191.317,0a5.432,5.432,0,0,1-4.163-1.665,5.71,5.71,0,0,1-1.546-4.044V24.172a5.709,5.709,0,0,1,1.546-4.044,5.432,5.432,0,0,1,4.163-1.665H1079.2a5.68,5.68,0,0,1,5.71,5.71V186.663a5.68,5.68,0,0,1-5.71,5.71Zm-82.078,0a5.68,5.68,0,0,1-5.71-5.71V110.1a2.26,2.26,0,0,0-2.141-2.617,3.727,3.727,0,0,0-3.569,1.655l-39.968,64.433a4.154,4.154,0,0,1-3.807,1.9,4.738,4.738,0,0,1-4.044-1.9L862,109.135a3.261,3.261,0,0,0-3.341-1.655,2.26,2.26,0,0,0-2.141,2.617V186.7a5.68,5.68,0,0,1-5.66,5.67H814.946a5.68,5.68,0,0,1-5.71-5.71V24.172a5.68,5.68,0,0,1,5.71-5.71h33.307a10.528,10.528,0,0,1,4.956,1.428,9.912,9.912,0,0,1,3.807,3.341l45.678,67.09a4.1,4.1,0,0,0,3.331,1.9,3.559,3.559,0,0,0,3.093-1.9L954.8,23.23a12.164,12.164,0,0,1,4.044-3.341,10.528,10.528,0,0,1,4.956-1.427H997.1a5.68,5.68,0,0,1,5.71,5.71V186.663a5.68,5.68,0,0,1-5.71,5.71Zm-440.852,0a5.7,5.7,0,0,1-5.71-5.71V67.709a5.71,5.71,0,0,0-1.546-4.044A5.432,5.432,0,0,0,508.937,62H475.164a5.67,5.67,0,0,1-5.71-5.71V23.934a5.67,5.67,0,0,1,5.71-5.71H600.779a5.4,5.4,0,0,1,4.243,1.665,5.74,5.74,0,0,1,1.557,4.054V56.29a5.74,5.74,0,0,1-1.556,4.054A5.4,5.4,0,0,1,600.869,62H567.552a5.7,5.7,0,0,0-5.71,5.71V186.663a5.709,5.709,0,0,1-1.546,4.044,5.433,5.433,0,0,1-4.163,1.665Zm-288.294,0a5.7,5.7,0,0,1-5.71-5.71V110.1a2.26,2.26,0,0,0-2.141-2.617,3.737,3.737,0,0,0-3.569,1.655l-39.968,64.433a4.154,4.154,0,0,1-3.8,1.9,4.768,4.768,0,0,1-4.054-1.933l-39.968-64.433a3.241,3.241,0,0,0-3.331-1.655,2.26,2.26,0,0,0-2.141,2.617v76.606a5.7,5.7,0,0,1-5.71,5.7H85.75a5.7,5.7,0,0,1-5.71-5.71V24.172a5.7,5.7,0,0,1,5.71-5.71h33.317a10.557,10.557,0,0,1,4.956,1.427,9.912,9.912,0,0,1,3.8,3.341l45.718,67.04a4.124,4.124,0,0,0,3.341,1.9,3.539,3.539,0,0,0,3.083-1.9l45.678-67.09a12.292,12.292,0,0,1,4.054-3.341,10.5,10.5,0,0,1,4.956-1.427h33.337a5.7,5.7,0,0,1,5.71,5.71v162.54a5.7,5.7,0,0,1-5.71,5.71Z" transform="translate(-80.04 -15.119)" fill="#e82e01"/>
</svg>
