<svg id="wifi" xmlns="http://www.w3.org/2000/svg" width="22.845" height="16.24" viewBox="0 0 22.845 16.24">
  <rect id="사각형_24007" data-name="사각형 24007" width="22.845" height="16.24" opacity="0"/>
  <path id="패스_7748" data-name="패스 7748" d="M1.476,6.846a.446.446,0,0,0,.654-.01,12.244,12.244,0,0,1,9.111-3.9,12.234,12.234,0,0,1,9.131,3.906.44.44,0,0,0,.635-.02l1.348-1.348a.391.391,0,0,0,.029-.557A14.764,14.764,0,0,0,11.242.01,14.764,14.764,0,0,0,.1,4.922a.4.4,0,0,0,.029.557Z" fill="currentColor" />
  <path id="패스_7749" data-name="패스 7749" d="M5.529,10.928a.44.44,0,0,0,.674-.039,6.976,6.976,0,0,1,5.039-2.236,7.09,7.09,0,0,1,5.078,2.266.41.41,0,0,0,.635,0l1.514-1.5a.386.386,0,0,0,.029-.547A9.532,9.532,0,0,0,11.242,5.7,9.532,9.532,0,0,0,3.986,8.867a.379.379,0,0,0,.029.547Z" fill="currentColor"/>
  <path id="패스_7750" data-name="패스 7750" d="M11.242,16.24c.215,0,.4-.1.781-.469l2.383-2.285a.394.394,0,0,0,.049-.537,4.125,4.125,0,0,0-6.465.059.363.363,0,0,0,.1.479l2.373,2.285C10.841,16.133,11.027,16.24,11.242,16.24Z" fill="currentColor"/>
</svg>
